<?xml version="1.0" encoding="UTF-8"?>
<svg id="a" data-name="Layer 1" xmlns="http://www.w3.org/2000/svg" xmlns:xlink="http://www.w3.org/1999/xlink" viewBox="0 0 1001 301">
  <defs>
    <clipPath id="b">
      <rect x=".5" y=".5" width="1000" height="300" style="fill: none;"/>
    </clipPath>
    <pattern id="c" data-name="10 dpi 10%" x="0" y="0" width="28.8" height="28.8" patternTransform="translate(-5674.03 -3250.65) scale(.53)" patternUnits="userSpaceOnUse" viewBox="0 0 28.8 28.8">
      <g>
        <rect x="0" width="28.8" height="28.8" style="fill: none;"/>
        <path d="M10.8,12.24c.79,0,1.44-.65,1.44-1.44s-.64-1.44-1.44-1.44-1.44.64-1.44,1.44.64,1.44,1.44,1.44Z" style="fill: #231f20;"/>
        <path d="M25.2,26.63c.79,0,1.44-.64,1.44-1.44s-.64-1.44-1.44-1.44-1.44.64-1.44,1.44.64,1.44,1.44,1.44Z" style="fill: #231f20;"/>
      </g>
    </pattern>
  </defs>
  <g style="clip-path: url(#b);">
    <path d="M327.27-57.71c55.46-25.54,119.04-21.84,176.99-9.39,58,12.08,110.43,32.53,158.68,71.81,48.65,39.33,93.52,97.55,84.09,146.1-9.03,48.6-71.57,87.64-131.56,131.59-59.64,44.38-116.82,94.41-177.4,95.3-60.23,1.31-124.34-45.83-168.36-104.32-44.03-58.49-67.97-128.31-56.77-189.93,11.65-61.94,58.91-115.99,114.32-141.16Z" style="fill: url(#c); opacity: .4;"/>
    <path d="M844.06,212c-28.31,27.57-70.93,46.16-108.47,47.89-37.51,1.87-69.89-12.83-101.59-27.37-31.5-14.58-62.3-28.86-75.81-52.86-13.49-23.85-9.53-57.61,14.46-78.59,23.76-21.07,67.72-29.55,112.8-40.72,45.08-11.17,91.69-25.11,127.54-16.98,35.82,7.98,61.32,38.1,67.24,71.25,5.75,33.34-8.05,69.85-36.16,97.38Z" style="fill: #edf5ea;"/>
    <path d="M859.14-90.87c-26.57,64.54-81.73,111.43-136.94,151.32-20.98,14.92-41.88,29.8-63.61,43.61-36.55,22.49-75.78,40.45-116.01,55.16-48.33,17.33-98.54,30.91-149.94,34.33-34.29,2.06-68.86-3.25-101.3-14.33-48.13-16.64-94.09-47.11-118.79-92.72,24.99,45.33,71.03,75.37,119.17,91.6,49.46,17.04,100.67,17.29,151.48,6.56,66.83-13.68,131.62-38,191.3-70.94,14.91-8.32,29.27-17.41,43.23-27.27,48.74-34.07,98.39-68.73,136.54-114.77,10.76-13.05,20.47-27.04,28.52-41.92,4-7.44,7.62-15.08,10.81-22.89l5.56,2.26h0Z" style="fill: #a5cd96;"/>
  </g>
</svg>