<?xml version="1.0" encoding="UTF-8"?>
<svg id="Layer_1" xmlns="http://www.w3.org/2000/svg" xmlns:xlink="http://www.w3.org/1999/xlink" xmlns:svgjs="http://svgjs.dev/svgjs" version="1.1" viewBox="0 0 1000 300">
  <!-- Generator: Adobe Illustrator 30.1.0, SVG Export Plug-In . SVG Version: 2.1.1 Build 136)  -->
  <defs>
    <style>
      .st0 {
        fill: none;
      }

      .st1 {
        fill: #231f20;
      }

      .st2 {
        fill: url(#_10_dpi_10_);
        opacity: .4;
      }

      .st3 {
        fill: #edf5ea;
      }

      .st4 {
        fill: #a5cd96;
      }
    </style>
    <pattern id="_10_dpi_10_" data-name="10 dpi 10%" x="0" y="0" width="28.8" height="28.8" patternTransform="translate(-3565.9 -2756.3) scale(.6)" patternUnits="userSpaceOnUse" viewBox="0 0 28.8 28.8">
      <g>
        <rect class="st0" x="0" width="28.8" height="28.8"/>
        <path class="st1" d="M10.8,12.2c.8,0,1.4-.6,1.4-1.4s-.6-1.4-1.4-1.4-1.4.6-1.4,1.4.6,1.4,1.4,1.4Z"/>
        <path class="st1" d="M25.2,26.6c.8,0,1.4-.6,1.4-1.4s-.6-1.4-1.4-1.4-1.4.6-1.4,1.4.6,1.4,1.4,1.4Z"/>
      </g>
    </pattern>
  </defs>
  <path class="st2" d="M308.1-77.9c58.7-27,126-23.1,187.3-9.9,61.4,12.8,116.9,34.4,167.9,76,51.5,41.6,99,103.3,89,154.6-9.6,51.4-75.8,92.8-139.2,139.3-63.1,47-123.6,99.9-187.8,100.9-63.7,1.4-131.6-48.5-178.2-110.4-46.6-61.9-71.9-135.8-60.1-201,12.3-65.6,62.3-122.8,121-149.4Z"/>
  <path class="st3" d="M913.8,207.6c-30,29.2-75.1,48.9-114.8,50.7-39.7,2-74-13.6-107.5-29-33.3-15.4-65.9-30.5-80.2-55.9-14.3-25.2-10.1-61,15.3-83.2,25.1-22.3,71.7-31.3,119.4-43.1,47.7-11.8,97-26.6,135-18,37.9,8.5,64.9,40.3,71.2,75.4,6.1,35.3-8.5,73.9-38.3,103.1Z"/>
  <path class="st4" d="M1115.8-54.6c-63.7,96.4-168,154.5-270.5,201.8-51.8,23.2-103.4,47.4-157.7,64.6-81.3,25.7-165.6,41.6-250.5,48.7-56.6,4.5-113.8,5.3-170.1-2.2C155.2,242.3,47.1,182.6-19,90c-16.2-23.3-29.3-48.9-37.6-76,8.5,27.1,21.6,52.6,37.9,75.8,66.3,92.1,174.4,151.2,286,166.7,145.4,17.3,322.3-11.3,459.2-62.3,91.2-38,183.3-77.2,265.1-133.4,46.2-32.2,88.2-71.3,119.2-118.6,0,0,5,3.3,5,3.3h0Z"/>
</svg>