<?xml version="1.0" encoding="UTF-8"?>
<svg id="Layer_1" data-name="Layer 1" xmlns="http://www.w3.org/2000/svg" xmlns:xlink="http://www.w3.org/1999/xlink" viewBox="0 0 1001 301">
  <defs>
    <style>
      .cls-1 {
        fill: none;
      }

      .cls-2 {
        fill: #231f20;
      }

      .cls-3 {
        fill: url(#_10_dpi_10_);
        opacity: .4;
      }

      .cls-4 {
        fill: #edf5ea;
      }

      .cls-5 {
        fill: #a5cd96;
      }
    </style>
    <pattern id="_10_dpi_10_" data-name="10 dpi 10%" x="0" y="0" width="28.8" height="28.8" patternTransform="translate(-12775.12 -13056.28) rotate(-173.92) scale(.53)" patternUnits="userSpaceOnUse" viewBox="0 0 28.8 28.8">
      <g>
        <rect class="cls-1" x="0" width="28.8" height="28.8"/>
        <path class="cls-2" d="M10.8,12.24c.79,0,1.44-.65,1.44-1.44s-.64-1.44-1.44-1.44-1.44.64-1.44,1.44.64,1.44,1.44,1.44Z"/>
        <path class="cls-2" d="M25.2,26.63c.79,0,1.44-.64,1.44-1.44s-.64-1.44-1.44-1.44-1.44.64-1.44,1.44.64,1.44,1.44,1.44Z"/>
      </g>
    </pattern>
  </defs>
  <path class="cls-3" d="M764.6,353.32c-57.86,19.53-120.68,9.11-176.99-9.41-56.4-18.15-106.36-44.04-150.19-88.21-44.21-44.26-82.66-106.91-68.15-154.19,14.13-47.37,80.45-79.57,144.75-116.92,64-37.81,126.17-81.51,186.49-75.98,60.03,5.07,118.78,58.74,156.37,121.56,37.59,62.82,54,134.79,36.33,194.87-18.15,60.36-70.86,109.1-128.63,128.26Z"/>
  <path class="cls-4" d="M478.34,121.4c16.4,46.52,1.79,111.2-45.1,131.74-46.63,20.38-125.03-3.52-174.35-45.85-49.08-42.3-69.08-103.03-46.27-137.71,23.03-34.44,88.38-42.89,145.15-32.98,56.52,9.87,104.17,38.27,120.58,84.79Z"/>
  <path class="cls-5" d="M357.16,283.66c-51.11-62.44-80.78-167.92-48.91-244.72,24.61-60.18,90.52-87.05,151.19-94.29,94.95-11.13,195.15,16.35,267.21,80.13,25.92,22.75,48.5,49.87,63.78,80.95,11.85,24.21,19.23,51.38,16.96,78.5-4.09,47.19-37.17,86.05-74.03,113.07-37.22,27.2-80.37,45.7-125.07,56.44-90.09,22.04-190.6,4.99-251.13-70.08h0ZM357.55,283.35c32.44,39.13,75.83,63.48,125.75,72.36,26.11,4.75,52.96,5.06,79.31,2.17,72.58-8.87,150.89-40.75,201.42-94.73,36.04-39.27,48.61-83.33,30.91-134.57-3.57-10.6-8.36-21.13-13.78-30.9-66.66-116.94-214.51-171.26-343.85-146.7-56.66,11.23-110.26,39.27-130.6,96.57-27.1,75.86,1.04,174.86,50.84,235.8h0Z"/>
</svg>