<?xml version="1.0" encoding="UTF-8"?>
<svg id="Layer_1" data-name="Layer 1" xmlns="http://www.w3.org/2000/svg" xmlns:xlink="http://www.w3.org/1999/xlink" viewBox="0 0 1001 301">
  <defs>
    <style>
      .cls-1 {
        fill: none;
      }

      .cls-2 {
        fill: #231f20;
      }

      .cls-3 {
        fill: url(#_10_dpi_10_);
        opacity: .4;
      }

      .cls-4 {
        fill: #edf5ea;
      }

      .cls-5 {
        fill: #a5cd96;
      }
    </style>
    <pattern id="_10_dpi_10_" data-name="10 dpi 10%" x="0" y="0" width="28.8" height="28.8" patternTransform="translate(-15931.98 -8498.98) rotate(124.06) scale(.64)" patternUnits="userSpaceOnUse" viewBox="0 0 28.8 28.8">
      <g>
        <rect class="cls-1" x="0" width="28.8" height="28.8"/>
        <path class="cls-2" d="M10.8,12.24c.79,0,1.44-.65,1.44-1.44s-.64-1.44-1.44-1.44-1.44.64-1.44,1.44.64,1.44,1.44,1.44Z"/>
        <path class="cls-2" d="M25.2,26.63c.79,0,1.44-.64,1.44-1.44s-.64-1.44-1.44-1.44-1.44.64-1.44,1.44.64,1.44,1.44,1.44Z"/>
      </g>
    </pattern>
  </defs>
  <path class="cls-3" d="M53.51,101.68C110.72,50.21,187.72,32.92,261.04,28.63c73.26-4.78,142.77,2.96,213.83,35.96,71.55,32.93,145.13,91.04,150.7,155.69,6.06,64.58-54.92,135.57-111.15,211.88-55.67,76.74-106.47,159.78-178.3,181.84-71.27,22.48-163.94-14.98-236.61-73.72C26.84,481.54-25.84,401.51-33.81,319.72-41.36,237.36-3.78,152.67,53.51,101.68Z"/>
  <path class="cls-4" d="M707.14,81.31c31.67,42.64,43.75,115.52,11.5,154.04-32.08,38.24-108.11,41.8-166.3,15.51-57.97-26.34-98.12-82.52-91.8-127.04,6.59-44.36,59.19-76.95,111.43-87.25,52.02-10.24,103.5,2.1,135.17,44.74Z"/>
  <path class="cls-5" d="M863.07,135.27c54.93,43.14,24.48,128.88,12.54,186.1-10.8,42.71-11.86,86.74-16.59,130.32-2.33,19-6.09,38.09-12.3,56.24-27.8,81.51-100.91,159.66-177.61,197.87-49.17,25.21-105.43,33.73-160.25,30.62-54.8-3.2-109.63-16.2-158.35-41.94-85.66-46.03-91.47-106.48-105.92-193.49-1.98-10.75-4.61-21.34-7.29-31.94-8.21-32.42-17.86-65.65-16.4-99.56.9-21.54,6.88-42.84,17.36-61.67,46.8-80.55,154.55-135.97,240.12-165.85,93.43-31.13,193.51-47.07,291.86-37.22,32.34,4.05,66.08,10.82,92.82,30.51h0ZM862.82,135.58c-26.74-19.5-60.43-26.08-92.67-29.98-98.11-9.38-197.85,7.8-290.68,39.49-84.25,29.95-191.45,85.48-237.6,164.72-10.22,18.31-16.05,38.93-16.96,59.86-1.45,33.59,7.95,66.05,16.04,98.45,2.66,10.66,5.28,21.37,7.24,32.19,14.1,85.88,19.19,145.91,103.76,191.48,48.23,25.62,102.71,38.65,157.05,41.95,54.41,3.2,110.2-5.08,159.08-30.01,76.11-37.67,149.45-115.58,177.32-196.26,6.25-18.05,10.09-37.01,12.49-55.94,4.91-43.5,6.18-87.68,17.12-130.32,12.21-57.03,42.5-142.68-12.19-185.65h0Z"/>
</svg>